<svg width="102" height="26" viewBox="0 0 102 26" fill="none" xmlns="http://www.w3.org/2000/svg">
<path d="M0.476562 25V0.390625H4.41406V25H0.476562ZM6.20703 13.8906V10.0586H8.5625C10.2734 10.0586 11.1992 9.22656 11.3398 7.5625C11.3398 7.42188 11.3398 7.28125 11.3398 7.14062C11.1758 5.28906 10.25 4.31641 8.5625 4.22266H6.20703V0.390625H8.87891C13.1445 0.460938 15.2891 2.6875 15.3125 7.07031C15.3125 10.4688 14.2344 12.5898 12.0781 13.4336C11.1875 13.7383 10.1211 13.8906 8.87891 13.8906C8.83203 13.8906 7.94141 13.8906 6.20703 13.8906ZM17.2461 18.1445V6.57812C17.2461 5.33594 17.7734 4.07031 18.8281 2.78125C20.2344 1.09375 22.0156 0.238281 24.1719 0.214844V4.11719C22.9531 4.14062 22.0391 4.79688 21.4297 6.08594C21.2422 6.50781 21.1484 6.85938 21.1484 7.14062V18.1445C21.1484 19.4102 21.8047 20.3477 23.1172 20.957C23.5156 21.1445 23.8555 21.2383 24.1367 21.2383V25.1758C22.8008 25.1758 21.4648 24.6953 20.1289 23.7344C18.2305 22.3281 17.2695 20.4648 17.2461 18.1445ZM26.0703 25.1758V21.2383C26.6797 21.2383 27.3125 20.957 27.9688 20.3945C28.6719 19.7617 29.0352 19.0117 29.0586 18.1445V7.14062C29.0586 6.4375 28.7539 5.75781 28.1445 5.10156C27.5586 4.46875 26.8672 4.14062 26.0703 4.11719V0.214844C28.4375 0.214844 30.3359 1.23438 31.7656 3.27344C32.5859 4.44531 32.9961 5.54688 32.9961 6.57812V18.1445C32.9961 20.7461 31.8359 22.7383 29.5156 24.1211C28.2969 24.8242 27.1484 25.1758 26.0703 25.1758ZM35.8086 25V0.390625H39.7461V25H35.8086ZM41.5391 14.6289V11.1133H43.5078C45.5469 11.1133 46.6719 10.1406 46.8828 8.19531C46.9062 7.98438 46.918 7.78516 46.918 7.59766C46.918 5.62891 46.0273 4.46875 44.2461 4.11719C43.918 4.07031 43.5781 4.04688 43.2266 4.04688H41.5391V0.390625H43.6836C46.8008 0.460938 48.8984 1.62109 49.9766 3.87109C50.4219 4.80859 50.6445 5.88672 50.6445 7.10547C50.6211 9.70703 49.8242 11.5938 48.2539 12.7656C49.4727 13.4688 50.2461 14.7227 50.5742 16.5273C50.6211 16.832 50.6562 17.1133 50.6797 17.3711L51.2773 25H47.6211L47.0938 18.7422C46.9062 16.7734 46.3789 15.5312 45.5117 15.0156C44.9961 14.7578 44.3516 14.6289 43.5781 14.6289H41.5391ZM52.6836 4.22266V0.390625H67.9062V4.22266H62.2812V25H58.3438V4.22266H52.6836ZM69.9453 25V0.390625H82.7422V4.25781H73.8828V10.7969H79.4375V14.7344H73.8828V21.0977H82.7422V25H69.9453ZM85.5898 25V6.64844H85.8711L89.5273 12.5195V25H85.5898ZM85.5898 2.92188V0.390625H88.8594L101.234 20.2539V25H99.3359L85.5898 2.92188ZM97.2969 10.6562V0.390625H101.234V16.5273H100.953L97.2969 10.6562Z" fill="white"/>
</svg>
